<?xml version="1.0" encoding="utf-8"?>
<!-- Generator: Adobe Illustrator 26.0.1, SVG Export Plug-In . SVG Version: 6.00 Build 0)  -->
<svg version="1.1" id="Ebene_1" xmlns="http://www.w3.org/2000/svg" xmlns:xlink="http://www.w3.org/1999/xlink" x="0px" y="0px"
	 viewBox="0 0 1920 1080" style="enable-background:new 0 0 1920 1080;" xml:space="preserve">
<style type="text/css">
	.st0{fill:none;stroke:#1D1D1B;stroke-miterlimit:10;}
	.st1{fill:#1D1D1B;}
	.st2{font-family:'MyriadPro-Regular';}
	.st3{font-size:61.3135px;}
	.st4{font-size:45.0223px;}
	.st5{font-size:57.5581px;}
	.st6{font-size:63.1974px;}
	.st7{font-size:63.869px;}
</style>
<path class="st0" d="M1920,1080H960H0c0-103.65,0-207.31,0-310.96C0,512.69,0,256.35,0,0c640,0,1280,0,1920,0V1080z"/>
<line class="st0" x1="960" y1="0" x2="960" y2="1080"/>
<line class="st0" x1="156.39" y1="531.63" x2="156.39" y2="552.56"/>
<line class="st0" x1="1766.71" y1="552.56" x2="1766.71" y2="531.63"/>
<line class="st0" x1="1655.23" y1="552.56" x2="1655.23" y2="531.63"/>
<line class="st0" x1="266.32" y1="552.56" x2="266.32" y2="531.63"/>
<path class="st0" d="M0,769.04c10.53,0.58,25.6,0.72,43.35-1.6c80.12-10.46,131.85-60.12,148.65-78.14
	c48.94-52.53,74.69-130.09,52.65-207.91c-1.95-6.9-33.78-112.26-147.1-156.28C58.27,309.86,22.42,307.11,0,306.98"/>
<path class="st0" d="M1920,773.02c-20.11-0.45-50.75-3.26-85.16-15.35c-11.28-3.96-57-20.88-96-60
	c-77.94-78.19-64.64-180.53-63.48-188.37c1.22-8.29,21.3-129.06,137.81-178.6c43.01-18.29,83.32-20.14,106.84-19.53"/>
<path class="st0" d="M960,706.05c50.37,0.16,86.23-22.08,97.55-29.3c76.7-48.96,77.48-133.24,77.42-139.53
	c-0.14-14.58-1.58-67.61-48-111.63c-7.65-7.25-53.68-49.46-126.97-48.84c-67.02,0.57-110.31,36.57-122.32,47.44
	c-46.79,42.34-68.48,110.21-43.35,173.02C820.19,661.91,889.55,705.83,960,706.05z"/>
<line class="st0" x1="7.74" y1="196.74" x2="0" y2="196.74"/>
<line class="st0" x1="32.52" y1="202.33" x2="55.74" y2="202.33"/>
<line class="st0" x1="126.3" y1="219.07" x2="145.55" y2="226.05"/>
<line class="st0" x1="168.77" y1="235.81" x2="184.26" y2="245.58"/>
<line class="st0" x1="209.03" y1="259.53" x2="222.97" y2="270.7"/>
<line class="st0" x1="7.74" y1="880.47" x2="0" y2="880.47"/>
<line class="st0" x1="32.52" y1="880.47" x2="55.74" y2="880.47"/>
<line class="st0" x1="85.16" y1="869.3" x2="105.29" y2="865.12"/>
<line class="st0" x1="126.3" y1="863.02" x2="145.94" y2="852.91"/>
<line class="st0" x1="168" y1="845.23" x2="184.26" y2="835.12"/>
<line class="st0" x1="207.87" y1="822.56" x2="223.74" y2="810.35"/>
<line class="st0" x1="246.19" y1="795.7" x2="260.9" y2="782.44"/>
<line class="st0" x1="277.16" y1="762.91" x2="291.1" y2="750"/>
<line class="st0" x1="305.03" y1="728.02" x2="316.65" y2="713.02"/>
<line class="st0" x1="327.48" y1="702.91" x2="339.48" y2="676.4"/>
<line class="st0" x1="346.45" y1="653.72" x2="354.19" y2="634.19"/>
<line class="st0" x1="358.45" y1="614.65" x2="361.55" y2="590.58"/>
<line class="st0" x1="365.03" y1="572.09" x2="365.03" y2="552.56"/>
<line class="st0" x1="365.03" y1="528.14" x2="365.03" y2="507.21"/>
<line class="st0" x1="362.32" y1="484.19" x2="356.9" y2="465.35"/>
<line class="st0" x1="351.1" y1="446.16" x2="346.45" y2="428.02"/>
<line class="st0" x1="335.61" y1="401.51" x2="327.1" y2="384.42"/>
<path class="st0" d="M314.71,362.79c3.1,0.35-8.52-10.12-8.52-10.12"/>
<line class="st0" x1="289.16" y1="326.86" x2="275.61" y2="315"/>
<line class="st0" x1="260.13" y1="298.26" x2="244.65" y2="283.95"/>
<line class="st0" x1="83.23" y1="204.59" x2="106.65" y2="212.62"/>
<line class="st0" x1="1907.08" y1="880.9" x2="1920" y2="880.9"/>
<line class="st0" x1="1883.85" y1="877.24" x2="1852.65" y2="877.24"/>
<line class="st0" x1="1840.16" y1="874.1" x2="1819.26" y2="867.56"/>
<line class="st0" x1="1796.03" y1="861.41" x2="1774.4" y2="854.74"/>
<line class="st0" x1="1755.53" y1="848.2" x2="1727.95" y2="833.68"/>
<line class="st0" x1="1716.63" y1="827.14" x2="1696.16" y2="807.91"/>
<line class="st0" x1="1680.48" y1="796.13" x2="1662.63" y2="780.96"/>
<line class="st0" x1="1646.95" y1="763.3" x2="1632" y2="749.96"/>
<line class="st0" x1="1617.19" y1="729.03" x2="1604.85" y2="714.64"/>
<line class="st0" x1="1594.69" y1="691.74" x2="1587.29" y2="678.27"/>
<line class="st0" x1="1576.98" y1="653.02" x2="1570.31" y2="636.41"/>
<line class="st0" x1="1564.5" y1="612.47" x2="1562.61" y2="594.81"/>
<line class="st0" x1="1558.55" y1="574.14" x2="1557.82" y2="553.6"/>
<line class="st0" x1="1557.82" y1="528.1" x2="1558.55" y2="504.55"/>
<line class="st0" x1="1560.29" y1="486.5" x2="1563.63" y2="466.61"/>
<line class="st0" x1="1568.85" y1="443.2" x2="1575.39" y2="427.76"/>
<line class="st0" x1="1584.68" y1="401.73" x2="1594.11" y2="389.17"/>
<line class="st0" x1="1608.19" y1="363.79" x2="1617.92" y2="352.41"/>
<line class="st0" x1="1633.02" y1="329" x2="1645.65" y2="317.22"/>
<line class="st0" x1="1665.97" y1="296.69" x2="1677.15" y2="287.14"/>
<line class="st0" x1="1699.35" y1="269.61" x2="1713.87" y2="259.4"/>
<line class="st0" x1="1734.48" y1="245.28" x2="1752.77" y2="237.43"/>
<line class="st0" x1="1776.48" y1="225.52" x2="1794" y2="221.69"/>
<line class="st0" x1="1866.29" y1="201.19" x2="1884.48" y2="201.19"/>
<line class="st0" x1="1909.45" y1="198.49" x2="1920" y2="198.49"/>
<line class="st0" x1="1820.52" y1="212.18" x2="1836.1" y2="208.08"/>
<text transform="matrix(0.6732 0.7164 -0.7949 0.6067 131.9522 283.041)" class="st1 st2 st3">Sperren?</text>
<text transform="matrix(1.0004 0 0 1 19.3301 633.46)" class="st1 st2 st4">Torraum?</text>
<text transform="matrix(1.1097 0 0 1 996.3545 251.1621)" class="st1 st2 st5">Spielzug?</text>
<text transform="matrix(1.1097 0 0 1 995.9258 1064.9912)" class="st1 st2 st5">Zeitstrafe?</text>
<text transform="matrix(0.3378 -0.8584 0.9525 0.3044 1534.1938 452.6227)" class="st1 st2 st6">Angriff?</text>
<text transform="matrix(-0.0185 0.901 -0.9999 -0.0167 1843.0933 373.5716)" class="st1 st2 st7">Sprungwurf?</text>
</svg>
